<?xml version="1.0" encoding="UTF-8" standalone="no"?>
<!-- Created with Inkscape (http://www.inkscape.org/) -->

<svg
   xmlns:dc="http://purl.org/dc/elements/1.1/"
   xmlns:cc="http://creativecommons.org/ns#"
   xmlns:rdf="http://www.w3.org/1999/02/22-rdf-syntax-ns#"
   xmlns:svg="http://www.w3.org/2000/svg"
   xmlns="http://www.w3.org/2000/svg"
   xmlns:xlink="http://www.w3.org/1999/xlink"
   xmlns:sodipodi="http://sodipodi.sourceforge.net/DTD/sodipodi-0.dtd"
   xmlns:inkscape="http://www.inkscape.org/namespaces/inkscape"
   width="125.23662mm"
   height="29.640562mm"
   viewBox="0 0 125.23662 29.640562"
   version="1.1"
   id="svg8"
   inkscape:version="0.92.0 r15299"
   sodipodi:docname="isologo-curvas.svg">
  <defs
     id="defs2">
    <linearGradient
       id="linearGradient4808"
       inkscape:collect="always">
      <stop
         id="stop4804"
         offset="0"
         style="stop-color:#ff8e37;stop-opacity:1" />
      <stop
         id="stop4806"
         offset="1"
         style="stop-color:#fcab4b;stop-opacity:1" />
    </linearGradient>
    <linearGradient
       inkscape:collect="always"
       id="linearGradient4778">
      <stop
         style="stop-color:#00a64b;stop-opacity:0.90588236"
         offset="0"
         id="stop4774" />
      <stop
         style="stop-color:#28ff7a;stop-opacity:0.9137255"
         offset="1"
         id="stop4776" />
    </linearGradient>
    <linearGradient
       id="linearGradient4748"
       inkscape:collect="always">
      <stop
         id="stop4744"
         offset="0"
         style="stop-color:#331eec;stop-opacity:1" />
      <stop
         id="stop4746"
         offset="1"
         style="stop-color:#2c73f1;stop-opacity:0.90196079" />
    </linearGradient>
    <linearGradient
       inkscape:collect="always"
       id="linearGradient4716">
      <stop
         style="stop-color:#f60000;stop-opacity:1"
         offset="0"
         id="stop4712" />
      <stop
         style="stop-color:#ff000c;stop-opacity:1"
         offset="1"
         id="stop4714" />
    </linearGradient>
    <linearGradient
       inkscape:collect="always"
       xlink:href="#linearGradient4716"
       id="linearGradient4718"
       x1="88.784203"
       y1="72.491699"
       x2="88.759865"
       y2="78.260437"
       gradientUnits="userSpaceOnUse"
       gradientTransform="matrix(0.97053721,0,0,0.97053721,-1.1001088,2.1498752)" />
    <linearGradient
       inkscape:collect="always"
       xlink:href="#linearGradient4748"
       id="linearGradient4718-7"
       x1="88.784203"
       y1="72.491699"
       x2="88.759865"
       y2="78.260437"
       gradientUnits="userSpaceOnUse"
       gradientTransform="matrix(0.97053722,0,0,1.6344319,2.2780589,-49.95565)" />
    <linearGradient
       inkscape:collect="always"
       xlink:href="#linearGradient4778"
       id="linearGradient4718-7-8"
       x1="88.784203"
       y1="72.491699"
       x2="88.759865"
       y2="78.260437"
       gradientUnits="userSpaceOnUse"
       gradientTransform="matrix(0.97053722,0,0,1.053033,6.0843359,-6.2401524)" />
    <linearGradient
       inkscape:collect="always"
       xlink:href="#linearGradient4808"
       id="linearGradient4718-7-8-7"
       x1="88.784203"
       y1="72.491699"
       x2="88.759865"
       y2="78.260437"
       gradientUnits="userSpaceOnUse"
       gradientTransform="matrix(0.97053722,0,0,1.6540738,10.273466,-51.593163)" />
  </defs>
  <sodipodi:namedview
     id="base"
     pagecolor="#ffffff"
     bordercolor="#666666"
     borderopacity="1.0"
     inkscape:pageopacity="0.0"
     inkscape:pageshadow="2"
     inkscape:zoom="0.98994949"
     inkscape:cx="233.74668"
     inkscape:cy="-145.47143"
     inkscape:document-units="mm"
     inkscape:current-layer="flowRoot4700"
     showgrid="false"
     fit-margin-top="0"
     fit-margin-left="0"
     fit-margin-right="0"
     fit-margin-bottom="0"
     inkscape:window-width="1366"
     inkscape:window-height="705"
     inkscape:window-x="-8"
     inkscape:window-y="-8"
     inkscape:window-maximized="1" />
  <metadata
     id="metadata5">
    <rdf:RDF>
      <cc:Work
         rdf:about="">
        <dc:format>image/svg+xml</dc:format>
        <dc:type
           rdf:resource="http://purl.org/dc/dcmitype/StillImage" />
        <dc:title></dc:title>
      </cc:Work>
    </rdf:RDF>
  </metadata>
  <g
     inkscape:label="Capa 1"
     inkscape:groupmode="layer"
     id="layer1"
     transform="translate(-2.6521142,-4.2145667)">
    <g
       id="g4866"
       transform="matrix(1.997536,0,0,1.997536,-66.990642,-131.58795)">
      <g
         aria-label="Docdoc!"
         transform="matrix(0.26458333,0,0,0.26458333,0.13363476,0.93544335)"
         style="font-style:normal;font-weight:normal;font-size:42.66666794px;line-height:47.24409485px;font-family:sans-serif;letter-spacing:0px;word-spacing:0px;fill:#FFFFFF;fill-opacity:1;stroke:none"
         id="flowRoot4700">
        <path
           d="m 161.49414,274.89153 q 0,4.46875 -2.04102,8.01368 -2.04101,3.52343 -5.15625,5.41406 -2.34179,1.41797 -5.13476,1.97656 -2.79297,0.55859 -6.61719,0.55859 h -11.2793 v -31.99023 h 11.60157 q 3.91015,0 6.74609,0.66602 2.83594,0.64453 4.76953,1.84765 3.3086,2.01953 5.19922,5.45703 1.91211,3.41602 1.91211,8.05664 z m -8.5293,-0.0644 q 0,-3.1582 -1.16015,-5.39258 -1.13867,-2.25586 -3.63086,-3.52343 -1.26758,-0.62305 -2.59961,-0.8379 -1.31055,-0.23632 -3.97461,-0.23632 h -2.08399 v 20.02343 h 2.08399 q 2.94336,0 4.31836,-0.25781 1.375,-0.2793 2.68555,-0.98828 2.25585,-1.28906 3.30859,-3.4375 1.05273,-2.16992 1.05273,-5.34961 z"
           style="font-style:normal;font-variant:normal;font-weight:bold;font-stretch:normal;font-size:44px;font-family:sans-serif;-inkscape-font-specification:'sans-serif Bold'"
           id="path4868" />
        <path
           d="m 192.02344,278.80169 q 0,5.95117 -3.48047,9.38867 -3.45899,3.41602 -9.73242,3.41602 -6.27344,0 -9.75391,-3.41602 -3.45898,-3.4375 -3.45898,-9.38867 0,-5.99414 3.48046,-9.41016 3.50196,-3.41601 9.73243,-3.41601 6.3164,0 9.7539,3.4375 3.45899,3.4375 3.45899,9.38867 z m -9.51758,5.86523 q 0.75195,-0.92382 1.11719,-2.21289 0.38672,-1.31054 0.38672,-3.60937 0,-2.12695 -0.38672,-3.56641 -0.38672,-1.43945 -1.07422,-2.29883 -0.6875,-0.88085 -1.6543,-1.24609 -0.9668,-0.36523 -2.08398,-0.36523 -1.11719,0 -1.99805,0.30078 -0.85938,0.30078 -1.6543,1.20312 -0.70898,0.83789 -1.13867,2.29883 -0.4082,1.46094 -0.4082,3.67383 0,1.97656 0.36523,3.4375 0.36524,1.43945 1.07422,2.32031 0.6875,0.83789 1.63281,1.22461 0.9668,0.38672 2.19141,0.38672 1.05273,0 1.99805,-0.34375 0.96679,-0.36523 1.63281,-1.20313 z"
           style="font-style:normal;font-variant:normal;font-weight:bold;font-stretch:normal;font-size:44px;font-family:sans-serif;-inkscape-font-specification:'sans-serif Bold'"
           id="path4870" />
        <path
           d="m 210.17773,291.49896 q -3.1582,0 -5.77929,-0.75196 -2.59961,-0.75195 -4.53321,-2.32031 -1.91211,-1.56836 -2.96484,-3.95312 -1.05273,-2.38477 -1.05273,-5.58594 0,-3.37305 1.11718,-5.82227 1.13868,-2.44922 3.15821,-4.06054 1.95507,-1.5254 4.51172,-2.23438 2.55664,-0.70898 5.30664,-0.70898 2.4707,0 4.55468,0.53711 2.08399,0.5371 3.88868,1.39648 v 6.5957 h -1.09571 q -0.45117,-0.38672 -1.0957,-0.90234 -0.62305,-0.51563 -1.54688,-1.00977 -0.88086,-0.47265 -1.93359,-0.77343 -1.05273,-0.32227 -2.44922,-0.32227 -3.09375,0 -4.76953,1.97656 -1.6543,1.95508 -1.6543,5.32813 0,3.48047 1.69727,5.28515 1.71875,1.80469 4.85547,1.80469 1.46094,0 2.62109,-0.32226 1.18164,-0.34375 1.95508,-0.79493 0.73047,-0.42968 1.28906,-0.90234 0.5586,-0.47266 1.03125,-0.92383 h 1.09571 v 6.59571 q -1.82618,0.85937 -3.82422,1.35351 -1.97657,0.51563 -4.38282,0.51563 z"
           style="font-style:normal;font-variant:normal;font-weight:bold;font-stretch:normal;font-size:44px;font-family:sans-serif;-inkscape-font-specification:'sans-serif Bold'"
           id="path4872" />
        <path
           d="m 243.26367,290.85442 h -4.03906 v -2.51367 q -1.74024,1.50391 -3.63086,2.3418 -1.89063,0.83789 -4.10352,0.83789 -4.29687,0 -6.83203,-3.30859 -2.51367,-3.3086 -2.51367,-9.17383 0,-3.05078 0.85938,-5.43555 0.88086,-2.38476 2.36328,-4.06055 1.46093,-1.63281 3.39453,-2.49218 1.95508,-0.85938 4.03906,-0.85938 1.89063,0 3.35156,0.40821 1.46094,0.38671 3.07227,1.2246 v -10.39843 h 4.03906 z m -4.03906,-5.9082 v -13.77148 q -1.63281,-0.73047 -2.92188,-1.00977 -1.28906,-0.2793 -2.81445,-0.2793 -3.39453,0 -5.28516,2.36329 -1.89062,2.36328 -1.89062,6.70312 0,4.27539 1.46094,6.50977 1.46093,2.21289 4.68359,2.21289 1.71875,0 3.48047,-0.75196 1.76172,-0.77343 3.28711,-1.97656 z"
           style="font-size:44px;line-height:47.24409485px"
           id="path4874" />
        <path
           d="m 271.66602,278.86614 q 0,5.86524 -3.00782,9.25977 -3.00781,3.39453 -8.05664,3.39453 -5.09179,0 -8.09961,-3.39453 -2.98633,-3.39453 -2.98633,-9.25977 0,-5.86523 2.98633,-9.25976 3.00782,-3.41602 8.09961,-3.41602 5.04883,0 8.05664,3.41602 3.00782,3.39453 3.00782,9.25976 z m -4.16797,0 q 0,-4.66211 -1.82618,-6.91797 -1.82617,-2.27734 -5.07031,-2.27734 -3.28711,0 -5.11328,2.27734 -1.80469,2.25586 -1.80469,6.91797 0,4.51172 1.82618,6.85352 1.82617,2.32031 5.09179,2.32031 3.22266,0 5.04883,-2.29883 1.84766,-2.32031 1.84766,-6.875 z"
           style="font-size:44px;line-height:47.24409485px"
           id="path4876" />
        <path
           d="m 295.68555,289.35052 q -2.01953,0.9668 -3.84571,1.5039 -1.80468,0.53711 -3.8457,0.53711 -2.59961,0 -4.76953,-0.75195 -2.16992,-0.77344 -3.7168,-2.32031 -1.56836,-1.54688 -2.42773,-3.91016 -0.85938,-2.36328 -0.85938,-5.52148 0,-5.88672 3.22266,-9.23828 3.24414,-3.35157 8.55078,-3.35157 2.0625,0 4.03906,0.58008 1.99805,0.58008 3.65235,1.41797 v 4.49024 h -0.21485 q -1.84765,-1.43946 -3.82422,-2.2129 -1.95507,-0.77343 -3.82421,-0.77343 -3.4375,0 -5.43555,2.32031 -1.97656,2.29883 -1.97656,6.76758 0,4.33984 1.93359,6.68164 1.95508,2.32031 5.47852,2.32031 1.2246,0 2.49218,-0.32226 1.26758,-0.32227 2.27735,-0.8379 0.88086,-0.45117 1.65429,-0.94531 0.77344,-0.51562 1.22461,-0.88086 h 0.21485 z"
           style="font-size:44px;line-height:47.24409485px"
           id="path4878" />
        <path
           d="m 307.97461,258.86419 -0.55859,23.18164 h -3.65235 l -0.60156,-23.18164 z m -0.21484,31.99023 h -4.38282 v -4.5332 h 4.38282 z"
           style="font-size:44px;line-height:47.24409485px"
           id="path4880" />
      </g>
      <rect
         ry="0.77642977"
         rx="0.77642977"
         y="72.313057"
         x="83.851768"
         height="5.8363876"
         width="2.3345549"
         id="rect4710"
         style="fill:url(#linearGradient4718);fill-opacity:1;stroke:none;stroke-width:0.25678796" />
      <rect
         ry="0.80000001"
         rx="0.80000001"
         y="68.202568"
         x="87.229927"
         height="9.8287611"
         width="2.3345549"
         id="rect4710-5"
         style="fill:url(#linearGradient4718-7);fill-opacity:1;stroke:none;stroke-width:0.33323604" />
      <rect
         ry="0.80000001"
         rx="0.80000001"
         y="69.886909"
         x="91.036201"
         height="6.3324814"
         width="2.3345549"
         id="rect4710-5-8"
         style="fill:url(#linearGradient4718-7-8);fill-opacity:1;stroke:none;stroke-width:0.26747891" />
      <rect
         ry="0.77963239"
         rx="0.80000001"
         y="67.985016"
         x="95.225327"
         height="9.9468803"
         width="2.3345549"
         id="rect4710-5-8-3"
         style="fill:url(#linearGradient4718-7-8-7);fill-opacity:1;stroke:none;stroke-width:0.33523241" />
      <g
         aria-label="ORIENTACIÓN LEGAL DE BOLSILLO"
         style="font-style:normal;font-weight:normal;font-size:3.52777767px;line-height:6.61458302px;font-family:sans-serif;letter-spacing:0px;word-spacing:0px;fill:#FFFFFF;fill-opacity:1;stroke:none;stroke-width:0.26458332"
         id="text4818">
        <path
           d="m 36.777103,80.842842 q 0.133615,0.14683 0.204093,0.359733 0.07195,0.212904 0.07195,0.483071 0,0.270167 -0.07341,0.484539 -0.07195,0.212903 -0.202625,0.355328 -0.135084,0.148299 -0.32009,0.223182 -0.183537,0.07488 -0.419933,0.07488 -0.230523,0 -0.419934,-0.07635 -0.187942,-0.07635 -0.320089,-0.221714 -0.132147,-0.145361 -0.204094,-0.356796 -0.07048,-0.211436 -0.07048,-0.483071 0,-0.267231 0.07048,-0.478666 0.07048,-0.212903 0.205562,-0.364138 0.12921,-0.143893 0.320089,-0.220245 0.192347,-0.07635 0.418466,-0.07635 0.234928,0 0.421402,0.07782 0.187942,0.07635 0.318621,0.218777 z m -0.02643,0.842804 q 0,-0.425807 -0.190879,-0.65633 -0.190879,-0.231991 -0.521246,-0.231991 -0.333304,0 -0.524183,0.231991 -0.189411,0.230523 -0.189411,0.65633 0,0.430212 0.193816,0.659267 0.193815,0.227586 0.519778,0.227586 0.325962,0 0.51831,-0.227586 0.193815,-0.229055 0.193815,-0.659267 z"
           style="font-size:3.00707769px;letter-spacing:0.32014582px;stroke-width:0.26458332"
           id="path4883" />
        <path
           d="m 39.64328,82.778061 h -0.377353 l -0.731213,-0.869233 h -0.409656 v 0.869233 h -0.290723 v -2.186298 h 0.612281 q 0.19822,0 0.330367,0.02643 0.132147,0.02496 0.237865,0.09104 0.118932,0.07488 0.185006,0.18941 0.06754,0.113059 0.06754,0.287787 0,0.236396 -0.118932,0.396441 -0.118932,0.158576 -0.327431,0.239333 z M 38.963457,81.20698 q 0,-0.09397 -0.03377,-0.165918 -0.0323,-0.07341 -0.108654,-0.123337 -0.06314,-0.04258 -0.149766,-0.05873 -0.08663,-0.01762 -0.204094,-0.01762 h -0.342114 v 0.825184 h 0.29366 q 0.13802,0 0.240801,-0.02349 0.102781,-0.02496 0.174728,-0.09103 0.06607,-0.06167 0.09691,-0.140957 0.0323,-0.08076 0.0323,-0.204094 z"
           style="font-size:3.00707769px;letter-spacing:0.32014582px;stroke-width:0.26458332"
           id="path4885" />
        <path
           d="m 41.016196,82.778061 h -0.86336 v -0.223182 h 0.286319 v -1.739935 h -0.286319 v -0.223181 h 0.86336 v 0.223181 h -0.286318 v 1.739935 h 0.286318 z"
           style="font-size:3.00707769px;letter-spacing:0.32014582px;stroke-width:0.26458332"
           id="path4887" />
        <path
           d="m 43.274498,82.778061 h -1.440402 v -2.186298 h 1.440402 v 0.25842 H 42.12482 v 0.599067 h 1.149678 v 0.25842 H 42.12482 v 0.81197 h 1.149678 z"
           style="font-size:3.00707769px;letter-spacing:0.32014582px;stroke-width:0.26458332"
           id="path4889" />
        <path
           d="m 45.725147,82.778061 h -0.359734 l -1.036619,-1.955775 v 1.955775 h -0.271636 v -2.186298 h 0.450768 l 0.945585,1.785452 v -1.785452 h 0.271636 z"
           style="font-size:3.00707769px;letter-spacing:0.32014582px;stroke-width:0.26458332"
           id="path4891" />
        <path
           d="m 48.186074,80.850183 h -0.781136 v 1.927878 h -0.290723 v -1.927878 h -0.781136 v -0.25842 h 1.852995 z"
           style="font-size:3.00707769px;letter-spacing:0.32014582px;stroke-width:0.26458332"
           id="path4893" />
        <path
           d="m 50.350404,82.778061 h -0.309811 l -0.214372,-0.609344 h -0.945585 l -0.214372,0.609344 h -0.295128 l 0.795818,-2.186298 h 0.387631 z m -0.613749,-0.858955 -0.383227,-1.073327 -0.384694,1.073327 z"
           style="font-size:3.00707769px;letter-spacing:0.32014582px;stroke-width:0.26458332"
           id="path4895" />
        <path
           d="m 52.69093,82.619485 q -0.08076,0.03524 -0.14683,0.06607 -0.06461,0.03083 -0.170323,0.06461 -0.08957,0.0279 -0.195284,0.04699 -0.104249,0.02056 -0.230523,0.02056 -0.237865,0 -0.433149,-0.06607 -0.193815,-0.06754 -0.337708,-0.209967 -0.140957,-0.139489 -0.220245,-0.353861 -0.07929,-0.21584 -0.07929,-0.50069 0,-0.270167 0.07635,-0.48307 0.07635,-0.212904 0.220245,-0.359734 0.139488,-0.142425 0.336241,-0.217308 0.19822,-0.07488 0.439021,-0.07488 0.176196,0 0.350924,0.04258 0.176196,0.04258 0.390568,0.149767 v 0.34505 h -0.02202 q -0.180601,-0.151235 -0.358265,-0.220245 -0.177664,-0.06901 -0.38029,-0.06901 -0.165918,0 -0.299533,0.05433 -0.132147,0.05286 -0.236396,0.165918 -0.101313,0.110123 -0.158576,0.278977 -0.0558,0.167386 -0.0558,0.387631 0,0.230523 0.06167,0.396441 0.06314,0.165918 0.161513,0.270167 0.102781,0.108654 0.239333,0.161513 0.13802,0.05139 0.290723,0.05139 0.209967,0 0.393504,-0.07195 0.183538,-0.07195 0.343582,-0.21584 h 0.02056 z"
           style="font-size:3.00707769px;letter-spacing:0.32014582px;stroke-width:0.26458332"
           id="path4897" />
        <path
           d="m 54.195993,82.778061 h -0.86336 v -0.223182 h 0.286318 v -1.739935 h -0.286318 v -0.223181 h 0.86336 v 0.223181 h -0.286319 v 1.739935 h 0.286319 z"
           style="font-size:3.00707769px;letter-spacing:0.32014582px;stroke-width:0.26458332"
           id="path4899" />
        <path
           d="m 56.643705,80.842842 q 0.133615,0.14683 0.204093,0.359733 0.07195,0.212904 0.07195,0.483071 0,0.270167 -0.07341,0.484539 -0.07195,0.212903 -0.202625,0.355328 -0.135084,0.148299 -0.32009,0.223182 -0.183537,0.07488 -0.419933,0.07488 -0.230524,0 -0.419934,-0.07635 -0.187943,-0.07635 -0.320089,-0.221714 -0.132147,-0.145361 -0.204094,-0.356796 -0.07048,-0.211436 -0.07048,-0.483071 0,-0.267231 0.07048,-0.478666 0.07048,-0.212903 0.205562,-0.364138 0.12921,-0.143893 0.320089,-0.220245 0.192347,-0.07635 0.418466,-0.07635 0.234927,0 0.421402,0.07782 0.187942,0.07635 0.318621,0.218777 z m -0.02643,0.842804 q 0,-0.425807 -0.190879,-0.65633 -0.190879,-0.231991 -0.521246,-0.231991 -0.333304,0 -0.524183,0.231991 -0.189411,0.230523 -0.189411,0.65633 0,0.430212 0.193816,0.659267 0.193815,0.227586 0.519778,0.227586 0.325962,0 0.51831,-0.227586 0.193815,-0.229055 0.193815,-0.659267 z m -0.306874,-1.916131 -0.400846,0.549144 h -0.218777 l 0.262826,-0.549144 z"
           style="font-size:3.00707769px;letter-spacing:0.32014582px;stroke-width:0.26458332"
           id="path4901" />
        <path
           d="m 59.368926,82.778061 h -0.359733 l -1.03662,-1.955775 v 1.955775 h -0.271635 v -2.186298 h 0.450768 l 0.945585,1.785452 v -1.785452 h 0.271635 z"
           style="font-size:3.00707769px;letter-spacing:0.32014582px;stroke-width:0.26458332"
           id="path4903" />
        <path
           d="m 63.030978,82.778061 h -1.383139 v -2.186298 h 0.290724 v 1.927877 h 1.092415 z"
           style="font-size:3.00707769px;letter-spacing:0.32014582px;stroke-width:0.26458332"
           id="path4905" />
        <path
           d="m 65.08225,82.778061 h -1.440402 v -2.186298 h 1.440402 v 0.25842 h -1.149678 v 0.599067 h 1.149678 v 0.25842 h -1.149678 v 0.81197 h 1.149678 z"
           style="font-size:3.00707769px;letter-spacing:0.32014582px;stroke-width:0.26458332"
           id="path4907" />
        <path
           d="m 67.688537,82.616548 q -0.179132,0.08223 -0.392036,0.143893 -0.211435,0.0602 -0.409656,0.0602 -0.255484,0 -0.468387,-0.07048 -0.212904,-0.07048 -0.36267,-0.211435 -0.151235,-0.142425 -0.23346,-0.355328 -0.08222,-0.214372 -0.08222,-0.500691 0,-0.524183 0.305407,-0.826652 0.306874,-0.303938 0.841335,-0.303938 0.186475,0 0.38029,0.04552 0.195284,0.04405 0.419934,0.151235 v 0.34505 h -0.02643 q -0.04552,-0.03524 -0.132147,-0.0925 -0.08663,-0.05726 -0.170322,-0.09544 -0.101313,-0.04552 -0.230523,-0.07488 -0.127742,-0.03083 -0.290724,-0.03083 -0.367075,0 -0.581446,0.236397 -0.212904,0.234927 -0.212904,0.637242 0,0.424338 0.223182,0.660734 0.223181,0.234928 0.607876,0.234928 0.140957,0 0.280445,-0.0279 0.140957,-0.0279 0.246674,-0.07195 v -0.535929 h -0.585851 v -0.255485 h 0.873638 z"
           style="font-size:3.00707769px;letter-spacing:0.32014582px;stroke-width:0.26458332"
           id="path4909" />
        <path
           d="m 70.240501,82.778061 h -0.309812 l -0.214371,-0.609344 h -0.945585 l -0.214372,0.609344 h -0.295128 l 0.795818,-2.186298 h 0.387631 z m -0.61375,-0.858955 -0.383226,-1.073327 -0.384694,1.073327 z"
           style="font-size:3.00707769px;letter-spacing:0.32014582px;stroke-width:0.26458332"
           id="path4911" />
        <path
           d="M 72.275618,82.778061 H 70.89248 v -2.186298 h 0.290723 v 1.927877 h 1.092415 z"
           style="font-size:3.00707769px;letter-spacing:0.32014582px;stroke-width:0.26458332"
           id="path4913" />
        <path
           d="m 76.110931,81.687114 q 0,0.298065 -0.130679,0.540335 -0.12921,0.242269 -0.34505,0.375884 -0.149767,0.0925 -0.334773,0.133616 -0.183537,0.04111 -0.484538,0.04111 H 74.26381 v -2.186298 h 0.546207 q 0.32009,0 0.508032,0.04699 0.189411,0.04552 0.320089,0.126274 0.223182,0.139489 0.347987,0.37148 0.124806,0.231991 0.124806,0.550612 z m -0.303938,-0.0044 q 0,-0.256952 -0.08957,-0.433148 -0.08957,-0.176196 -0.267231,-0.277509 -0.12921,-0.07342 -0.274572,-0.101312 -0.145362,-0.02937 -0.347987,-0.02937 h -0.273104 v 1.687076 h 0.273104 q 0.209967,0 0.365607,-0.03083 0.157108,-0.03083 0.287786,-0.114528 0.162982,-0.104249 0.243738,-0.274572 0.08223,-0.170322 0.08223,-0.425807 z"
           style="font-size:3.00707769px;letter-spacing:0.32014582px;stroke-width:0.26458332"
           id="path4915" />
        <path
           d="M 78.344272,82.778061 H 76.90387 v -2.186298 h 1.440402 v 0.25842 h -1.149678 v 0.599067 h 1.149678 v 0.25842 h -1.149678 v 0.81197 h 1.149678 z"
           style="font-size:3.00707769px;letter-spacing:0.32014582px;stroke-width:0.26458332"
           id="path4917" />
        <path
           d="m 82.153155,82.10558 q 0,0.162981 -0.06167,0.287786 -0.06167,0.124806 -0.165918,0.205562 -0.123337,0.09691 -0.271635,0.138021 -0.14683,0.04111 -0.374417,0.04111 h -0.775262 v -2.186298 h 0.64752 q 0.239333,0 0.358265,0.01762 0.118933,0.01762 0.227587,0.07341 0.1204,0.06314 0.174727,0.162982 0.05433,0.09838 0.05433,0.236396 0,0.15564 -0.07929,0.265762 -0.07929,0.108654 -0.211435,0.174728 v 0.01175 q 0.221713,0.04552 0.349456,0.195284 0.127742,0.148298 0.127742,0.375885 z m -0.488944,-0.985229 q 0,-0.07929 -0.02643,-0.133616 -0.02643,-0.05433 -0.08516,-0.0881 -0.06901,-0.03964 -0.167386,-0.04845 -0.09838,-0.01028 -0.243738,-0.01028 h -0.346519 v 0.631369 h 0.375885 q 0.136552,0 0.217309,-0.01321 0.08076,-0.01468 0.149766,-0.05873 0.06901,-0.04405 0.09691,-0.11306 0.02937,-0.07048 0.02937,-0.165917 z m 0.186474,0.996975 q 0,-0.132147 -0.03964,-0.209967 -0.03964,-0.07782 -0.143894,-0.132147 -0.07048,-0.03671 -0.171791,-0.04698 -0.09984,-0.01175 -0.243737,-0.01175 h -0.456642 v 0.813438 h 0.384695 q 0.190879,0 0.312748,-0.01909 0.121869,-0.02056 0.199689,-0.07341 0.08222,-0.05726 0.1204,-0.130678 0.03818,-0.07341 0.03818,-0.189411 z"
           style="font-size:3.00707769px;letter-spacing:0.32014582px;stroke-width:0.26458332"
           id="path4919" />
        <path
           d="m 84.515704,80.842842 q 0.133616,0.14683 0.204094,0.359733 0.07195,0.212904 0.07195,0.483071 0,0.270167 -0.07342,0.484539 -0.07195,0.212903 -0.202626,0.355328 -0.135083,0.148299 -0.320089,0.223182 -0.183537,0.07488 -0.419934,0.07488 -0.230523,0 -0.419933,-0.07635 -0.187943,-0.07635 -0.32009,-0.221714 -0.132147,-0.145361 -0.204093,-0.356796 -0.07048,-0.211436 -0.07048,-0.483071 0,-0.267231 0.07048,-0.478666 0.07048,-0.212903 0.205562,-0.364138 0.12921,-0.143893 0.320089,-0.220245 0.192347,-0.07635 0.418465,-0.07635 0.234928,0 0.421402,0.07782 0.187943,0.07635 0.318621,0.218777 z m -0.02643,0.842804 q 0,-0.425807 -0.190879,-0.65633 -0.190879,-0.231991 -0.521246,-0.231991 -0.333304,0 -0.524183,0.231991 -0.189411,0.230523 -0.189411,0.65633 0,0.430212 0.193815,0.659267 0.193816,0.227586 0.519779,0.227586 0.325962,0 0.518309,-0.227586 0.193816,-0.229055 0.193816,-0.659267 z"
           style="font-size:3.00707769px;letter-spacing:0.32014582px;stroke-width:0.26458332"
           id="path4921" />
        <path
           d="m 86.956076,82.778061 h -1.383138 v -2.186298 h 0.290723 v 1.927877 h 1.092415 z"
           style="font-size:3.00707769px;letter-spacing:0.32014582px;stroke-width:0.26458332"
           id="path4923" />
        <path
           d="m 89.155645,82.154034 q 0,0.127742 -0.0602,0.252547 -0.05873,0.124806 -0.165918,0.211435 -0.117464,0.09397 -0.274572,0.14683 -0.15564,0.05286 -0.375885,0.05286 -0.236396,0 -0.425807,-0.04405 -0.187942,-0.04405 -0.383226,-0.130679 v -0.364138 h 0.02056 q 0.165918,0.13802 0.383226,0.212903 0.217309,0.07488 0.408188,0.07488 0.270167,0 0.419933,-0.101313 0.151235,-0.101313 0.151235,-0.270167 0,-0.145362 -0.07195,-0.214372 -0.07048,-0.06901 -0.21584,-0.107186 -0.110123,-0.02937 -0.239333,-0.04845 -0.127742,-0.01909 -0.271636,-0.04845 -0.290723,-0.06167 -0.43168,-0.209967 -0.139488,-0.149767 -0.139488,-0.3891 0,-0.274572 0.231991,-0.449299 0.231991,-0.176196 0.588788,-0.176196 0.230523,0 0.422871,0.04405 0.192347,0.04405 0.340645,0.108654 v 0.343582 h -0.02056 q -0.124806,-0.105718 -0.328899,-0.174728 -0.202626,-0.07048 -0.415529,-0.07048 -0.23346,0 -0.375885,0.09691 -0.140957,0.09691 -0.140957,0.249611 0,0.136551 0.07048,0.214371 0.07048,0.07782 0.248143,0.118933 0.09397,0.02056 0.26723,0.04992 0.173259,0.02937 0.29366,0.0602 0.243738,0.06461 0.367075,0.195284 0.123337,0.130679 0.123337,0.365607 z"
           style="font-size:3.00707769px;letter-spacing:0.32014582px;stroke-width:0.26458332"
           id="path4925" />
        <path
           d="m 90.713565,82.778061 h -0.86336 v -0.223182 h 0.286318 v -1.739935 h -0.286318 v -0.223181 h 0.86336 v 0.223181 h -0.286318 v 1.739935 h 0.286318 z"
           style="font-size:3.00707769px;letter-spacing:0.32014582px;stroke-width:0.26458332"
           id="path4927" />
        <path
           d="m 92.914603,82.778061 h -1.383139 v -2.186298 h 0.290724 v 1.927877 h 1.092415 z"
           style="font-size:3.00707769px;letter-spacing:0.32014582px;stroke-width:0.26458332"
           id="path4929" />
        <path
           d="m 94.90861,82.778061 h -1.383139 v -2.186298 h 0.290724 v 1.927877 h 1.092415 z"
           style="font-size:3.00707769px;letter-spacing:0.32014582px;stroke-width:0.26458332"
           id="path4931" />
        <path
           d="m 97.119926,80.842842 q 0.133615,0.14683 0.204093,0.359733 0.07195,0.212904 0.07195,0.483071 0,0.270167 -0.07341,0.484539 -0.07195,0.212903 -0.202625,0.355328 -0.135084,0.148299 -0.32009,0.223182 -0.183537,0.07488 -0.419933,0.07488 -0.230523,0 -0.419934,-0.07635 -0.187942,-0.07635 -0.320089,-0.221714 -0.132147,-0.145361 -0.204094,-0.356796 -0.07048,-0.211436 -0.07048,-0.483071 0,-0.267231 0.07048,-0.478666 0.07048,-0.212903 0.205562,-0.364138 0.12921,-0.143893 0.320089,-0.220245 0.192347,-0.07635 0.418466,-0.07635 0.234928,0 0.421402,0.07782 0.187942,0.07635 0.318621,0.218777 z m -0.02643,0.842804 q 0,-0.425807 -0.190879,-0.65633 -0.190879,-0.231991 -0.521246,-0.231991 -0.333304,0 -0.524183,0.231991 -0.189411,0.230523 -0.189411,0.65633 0,0.430212 0.193816,0.659267 0.193815,0.227586 0.519778,0.227586 0.325962,0 0.51831,-0.227586 0.193815,-0.229055 0.193815,-0.659267 z"
           style="font-size:3.00707769px;letter-spacing:0.32014582px;stroke-width:0.26458332"
           id="path4933" />
      </g>
    </g>
  </g>
</svg>
