<svg xmlns="http://www.w3.org/2000/svg" xmlns:xlink="http://www.w3.org/1999/xlink" width="473.335" height="112.027" viewBox="0 0 125.237 29.641">
  <defs>
    <style>
      @-webkit-keyframes heightDance{50%{-webkit-transform:scaleY(1.025);transform:scaleY(1.025)}}@keyframes heightDance{50%{-webkit-transform:scaleY(1.025);transform:scaleY(1.025)}}.animated{-webkit-animation-duration:1s;animation-duration:1s;-webkit-animation-fill-mode:both;animation-fill-mode:both}.animated.infinite{-webkit-animation-iteration-count:infinite;animation-iteration-count:infinite}@media (prefers-reduced-motion){.animated{-webkit-animation:unset!important;animation:unset!important;-webkit-transition:none!important;transition:none!important}}.heightDance{-webkit-animation-name:heightDance;animation-name:heightDance}
    </style>
    <linearGradient id="d">
      <stop offset="0" stop-color="#ff8e37"/>
      <stop offset="1" stop-color="#fcab4b"/>
    </linearGradient>
    <linearGradient id="c">
      <stop offset="0" stop-color="#00a64b" stop-opacity=".906"/>
      <stop offset="1" stop-color="#28ff7a" stop-opacity=".914"/>
    </linearGradient>
    <linearGradient id="b">
      <stop offset="0" stop-color="#331eec"/>
      <stop offset="1" stop-color="#2c73f1" stop-opacity=".902"/>
    </linearGradient>
    <linearGradient id="a">
      <stop offset="0" stop-color="#f60000"/>
      <stop offset="1" stop-color="#ff000c"/>
    </linearGradient>
    <linearGradient xlink:href="#a" id="e" x1="88.784" y1="72.492" x2="88.76" y2="78.26" gradientUnits="userSpaceOnUse" gradientTransform="translate(-1.1 2.15) scale(.97054)"/>
    <linearGradient xlink:href="#b" id="f" x1="88.784" y1="72.492" x2="88.76" y2="78.26" gradientUnits="userSpaceOnUse" gradientTransform="matrix(.97054 0 0 1.63443 2.278 -49.956)"/>
    <linearGradient xlink:href="#c" id="g" x1="88.784" y1="72.492" x2="88.76" y2="78.26" gradientUnits="userSpaceOnUse" gradientTransform="matrix(.97054 0 0 1.05303 6.084 -6.24)"/>
    <linearGradient xlink:href="#d" id="h" x1="88.784" y1="72.492" x2="88.76" y2="78.26" gradientUnits="userSpaceOnUse" gradientTransform="matrix(.97054 0 0 1.65407 10.273 -51.593)"/>
  </defs>
  <g transform="translate(-69.643 -135.803) scale(1.99754)">
    <g aria-label="Docdoc!" style="line-height:47.24409485px" font-weight="400" font-size="44" font-family="sans-serif" letter-spacing="0" word-spacing="0">
    <path d="M42.862 73.667q0 1.183-.54 2.12-.54.933-1.364 1.433-.62.375-1.359.523-.739.148-1.75.148h-2.985v-8.464h3.07q1.034 0 1.785.176.75.17 1.262.489.875.534 1.375 1.444.506.903.506 2.131zm-2.256-.017q0-.835-.307-1.427-.302-.597-.961-.932-.335-.165-.688-.222-.347-.062-1.051-.062h-.552v5.298h.552q.778 0 1.142-.068.364-.074.71-.262.598-.341.876-.91.279-.574.279-1.415zm10.334 1.052q0 1.574-.921 2.484-.915.904-2.575.904-1.66 0-2.58-.904-.916-.91-.916-2.484 0-1.586.92-2.49.927-.904 2.576-.904 1.671 0 2.58.91.916.91.916 2.484zm-2.518 1.552q.199-.245.295-.586.103-.347.103-.955 0-.563-.103-.944-.102-.38-.284-.608-.182-.233-.438-.33-.255-.096-.551-.096-.296 0-.529.08-.227.08-.437.318-.188.222-.302.608-.108.387-.108.972 0 .523.097.91.097.38.284.614.182.221.432.324.256.102.58.102.279 0 .529-.091.255-.097.432-.318zm7.321 1.807q-.835 0-1.529-.199-.688-.199-1.2-.614-.505-.415-.784-1.046-.278-.63-.278-1.478 0-.892.295-1.54.302-.648.836-1.074.517-.404 1.194-.592.676-.187 1.404-.187.653 0 1.205.142.551.142 1.029.37v1.745h-.29q-.12-.103-.29-.24-.165-.136-.41-.266-.233-.125-.511-.205-.279-.085-.648-.085-.819 0-1.262.523-.438.517-.438 1.41 0 .92.45 1.398.454.477 1.284.477.387 0 .694-.085.312-.09.517-.21.193-.114.34-.239.149-.125.274-.244h.29v1.745q-.484.227-1.012.358-.523.136-1.16.136z" style="-inkscape-font-specification:'sans-serif Bold'" font-weight="700"/>
    <path d="M64.497 77.89h-1.069v-.664q-.46.398-.96.62-.5.22-1.086.22-1.137 0-1.808-.875-.665-.875-.665-2.427 0-.807.228-1.438.233-.63.625-1.074.387-.432.898-.66.517-.227 1.069-.227.5 0 .887.108.386.102.812.324v-2.751h1.07zm-1.069-1.563v-3.643q-.432-.194-.773-.267-.34-.074-.744-.074-.898 0-1.399.625-.5.625-.5 1.774 0 1.13.387 1.722.386.585 1.239.585.455 0 .92-.199.467-.204.87-.523zm8.584-1.608q0 1.552-.796 2.45-.796.898-2.132.898-1.347 0-2.143-.898-.79-.898-.79-2.45t.79-2.45q.796-.904 2.143-.904 1.336 0 2.132.904.796.898.796 2.45zm-1.103 0q0-1.234-.483-1.83-.483-.603-1.342-.603-.87 0-1.352.602-.478.597-.478 1.83 0 1.195.483 1.814.483.614 1.347.614.853 0 1.336-.608.49-.614.49-1.82zm7.458 2.774q-.534.256-1.017.398-.478.142-1.018.142-.688 0-1.262-.2-.574-.204-.983-.613-.415-.41-.643-1.035-.227-.625-.227-1.46 0-1.558.853-2.445.858-.887 2.262-.887.546 0 1.069.154.528.153.966.375v1.188h-.057q-.489-.38-1.012-.585-.517-.205-1.011-.205-.91 0-1.439.614-.523.608-.523 1.79 0 1.149.512 1.768.517.614 1.45.614.324 0 .659-.085t.603-.222q.233-.12.437-.25.205-.136.324-.233h.057zm3.252-8.066l-.148 6.133h-.967l-.159-6.133zm-.057 8.464h-1.16v-1.2h1.16z" style="line-height:47.24409485px"/>
  </g>
  <rect class="animated heightDance infinite" ry=".776" rx=".776" y="72.313" x="83.852" height="5.836" width="2.335" fill="url(#e)" style="-webkit-animation-delay:200ms,200ms;animation-delay:200ms,200ms"/>
  <rect class="animated heightDance infinite" ry=".8" rx=".8" y="68.203" x="87.23" height="9.829" width="2.335" fill="url(#f)" style="-webkit-animation-delay:600ms,600ms;animation-delay:600ms,600ms"/>
  <rect class="animated heightDance infinite" ry=".8" rx=".8" y="69.887" x="91.036" height="6.332" width="2.335" fill="url(#g)" style="-webkit-animation-delay:400ms,400ms;animation-delay:400ms,400ms"/>
  <rect class="animated heightDance infinite" ry=".78" rx=".8" y="67.985" x="95.225" height="9.947" width="2.335" fill="url(#h)"/>
  <path d="M36.777 80.843q.134.147.204.36.072.212.072.483 0 .27-.073.484-.072.213-.203.356-.135.148-.32.223-.184.075-.42.075-.23 0-.42-.077-.188-.076-.32-.221-.132-.146-.204-.357-.07-.212-.07-.483 0-.268.07-.479.07-.213.206-.364.129-.144.32-.22.192-.077.418-.077.235 0 .421.078.188.076.32.219zm-.026.843q0-.426-.191-.657-.191-.232-.521-.232-.334 0-.525.232-.189.23-.189.657 0 .43.194.659.194.227.52.227t.518-.227q.194-.23.194-.66zm2.892 1.092h-.377l-.731-.87h-.41v.87h-.29v-2.186h.612q.198 0 .33.026.132.025.238.091.119.075.185.19.067.113.067.287 0 .237-.119.397-.118.158-.327.24zm-.68-1.571q0-.094-.033-.166-.033-.073-.109-.123-.063-.043-.15-.059-.086-.018-.204-.018h-.342v.826h.294q.138 0 .24-.024.103-.025.175-.091.066-.062.097-.14.032-.082.032-.205zm2.053 1.571h-.863v-.223h.286v-1.74h-.286v-.223h.863v.223h-.286v1.74h.286zm2.258 0h-1.44v-2.186h1.44v.258h-1.15v.6h1.15v.258h-1.15v.812h1.15zm2.451 0h-.36l-1.036-1.956v1.956h-.272v-2.186h.45l.947 1.785v-1.785h.271zm2.461-1.928h-.781v1.928h-.29V80.85h-.782v-.258h1.853zm2.164 1.928h-.31l-.214-.61h-.945l-.215.61h-.295l.796-2.186h.388zm-.613-.859l-.384-1.073-.384 1.073zm2.953.701q-.08.035-.146.066-.065.03-.17.064-.09.028-.196.047-.104.02-.23.02-.238 0-.433-.065-.194-.068-.338-.21-.14-.14-.22-.354-.08-.216-.08-.5 0-.271.077-.484.076-.213.22-.36.14-.142.336-.217.199-.075.44-.075.176 0 .35.043.177.042.39.15v.345h-.021q-.18-.152-.358-.22-.178-.07-.38-.07-.167 0-.3.055-.132.052-.237.166-.1.11-.158.279-.056.167-.056.387 0 .23.062.397.063.165.161.27.103.108.24.161.138.052.29.052.21 0 .394-.072.183-.072.343-.216h.02zm1.506.158h-.863v-.223h.286v-1.74h-.286v-.223h.863v.223h-.286v1.74h.286zm2.448-1.935q.133.147.204.36.072.212.072.483 0 .27-.074.484-.072.213-.202.356-.135.148-.32.223-.184.075-.42.075-.23 0-.42-.077-.188-.076-.32-.221-.132-.146-.204-.357-.07-.212-.07-.483 0-.268.07-.479.07-.213.205-.364.13-.144.32-.22.193-.077.419-.077.235 0 .421.078.188.076.319.219zm-.027.843q0-.426-.19-.657-.191-.232-.522-.232-.333 0-.524.232-.19.23-.19.657 0 .43.194.659.194.227.52.227t.518-.227q.194-.23.194-.66zm-.307-1.916l-.4.549h-.22l.264-.55zm3.059 3.008h-.36l-1.036-1.956v1.956H57.7v-2.186h.45l.946 1.785v-1.785h.272zm3.662 0h-1.383v-2.186h.29v1.928h1.093zm2.051 0h-1.44v-2.186h1.44v.258h-1.15v.6h1.15v.258h-1.15v.812h1.15zm2.607-.161q-.18.082-.392.143-.212.06-.41.06-.256 0-.469-.07-.212-.07-.362-.211-.151-.143-.234-.356-.082-.214-.082-.5 0-.524.306-.827.306-.304.84-.304.187 0 .381.046.195.044.42.15v.346h-.026q-.046-.035-.133-.093-.086-.057-.17-.095-.101-.046-.23-.075-.128-.03-.291-.03-.367 0-.582.236-.212.235-.212.637 0 .424.223.66.223.236.608.236.14 0 .28-.028.141-.028.247-.072v-.536h-.586v-.256h.874zm2.551.161h-.31l-.214-.61h-.945l-.215.61h-.295l.796-2.186h.388zm-.613-.859l-.383-1.073-.385 1.073zm2.649.859h-1.384v-2.186h.291v1.928h1.093zm3.834-1.091q0 .298-.13.54-.129.243-.345.376-.15.093-.335.134-.183.041-.484.041h-.552v-2.186h.546q.32 0 .508.047.19.045.32.126.223.14.348.372.125.231.125.55zm-.303-.004q0-.257-.09-.433-.09-.177-.267-.278-.129-.073-.274-.101-.146-.03-.348-.03h-.273v1.687h.273q.21 0 .365-.03.157-.031.288-.115.163-.104.244-.274.082-.17.082-.426zm2.537 1.095h-1.44v-2.186h1.44v.258h-1.15v.6h1.15v.258h-1.15v.812h1.15zm3.809-.672q0 .163-.062.287-.061.125-.165.206-.124.097-.272.138-.147.041-.374.041h-.776v-2.186h.648q.24 0 .358.017.119.018.228.074.12.063.174.163.055.098.055.236 0 .156-.08.266-.079.109-.211.175v.011q.222.046.35.196.127.148.127.376zm-.489-.986q0-.079-.026-.133-.027-.055-.085-.088-.07-.04-.168-.049-.098-.01-.244-.01h-.346v.631h.376q.136 0 .217-.013.08-.015.15-.059.069-.044.097-.113.03-.07.03-.166zm.187.997q0-.132-.04-.21-.04-.077-.144-.132-.07-.036-.172-.047-.1-.012-.243-.012h-.457v.814h.385q.19 0 .312-.02t.2-.073q.082-.057.12-.13.039-.074.039-.19zm2.665-1.274q.133.147.204.36.072.212.072.483 0 .27-.074.484-.072.213-.202.356-.135.148-.32.223-.184.075-.42.075-.23 0-.42-.077-.188-.076-.32-.221-.132-.146-.204-.357-.07-.212-.07-.483 0-.268.07-.479.07-.213.205-.364.13-.144.32-.22.193-.077.419-.077.235 0 .421.078.188.076.319.219zm-.027.843q0-.426-.19-.657-.191-.232-.522-.232-.333 0-.524.232-.19.23-.19.657 0 .43.194.659.194.227.52.227t.518-.227q.194-.23.194-.66zm2.467 1.092h-1.383v-2.186h.29v1.928h1.093zm2.2-.624q0 .128-.06.253-.06.124-.166.211-.118.094-.275.147-.156.053-.376.053-.236 0-.426-.044-.188-.044-.383-.131v-.364h.02q.167.138.384.213.217.075.408.075.27 0 .42-.102.151-.101.151-.27 0-.145-.072-.214-.07-.07-.216-.107-.11-.03-.239-.049-.128-.019-.272-.048-.29-.062-.431-.21-.14-.15-.14-.39 0-.274.232-.449.232-.176.589-.176.23 0 .423.044.192.044.34.109v.343h-.02q-.125-.105-.329-.174-.203-.07-.415-.07-.234 0-.376.096-.141.097-.141.25 0 .136.07.214.07.078.248.119.094.02.268.05.173.03.293.06.244.065.367.195.124.131.124.366zm1.558.624h-.864v-.223h.287v-1.74h-.287v-.223h.864v.223h-.287v1.74h.287zm2.201 0H91.53v-2.186h.291v1.928h1.093zm1.994 0h-1.384v-2.186h.291v1.928h1.093zm2.211-1.935q.134.147.204.36.072.212.072.483 0 .27-.073.484-.072.213-.203.356-.135.148-.32.223-.184.075-.42.075-.23 0-.42-.077-.188-.076-.32-.221-.132-.146-.204-.357-.07-.212-.07-.483 0-.268.07-.479.07-.213.205-.364.13-.144.32-.22.193-.077.419-.077.235 0 .421.078.188.076.319.219zm-.027.843q0-.426-.19-.657-.191-.232-.522-.232-.333 0-.524.232-.19.23-.19.657 0 .43.195.659.193.227.52.227.325 0 .518-.227.193-.23.193-.66z" aria-label="ORIENTACIÓN LEGAL DE BOLSILLO" font-weight="400" font-size="3.007" font-family="sans-serif" letter-spacing=".32" word-spacing="0" stroke-width=".265"/>
  </g>
</svg>